<svg width="106" height="106" viewBox="0 0 106 106" fill="none" xmlns="http://www.w3.org/2000/svg">
<rect width="106" height="106" rx="53" fill="#FCEB4F" fill-opacity="0.16"/>
<path d="M60.6613 32.1158C59.3779 32.1251 58.1037 32.1875 56.7578 32.5483C55.2913 32.9452 53.8999 33.5804 52.6392 34.4283C50.8679 33.3877 49.152 32.5321 47.5078 32.3309C45.4659 32.0788 43.5696 32.2153 41.3658 32.2615C38.7527 32.3147 37.0484 33.649 34.2826 34.7174C31.5192 35.7811 27.9602 36.8125 22.9375 36.8125H20.625V59.0703L21.9269 59.7201L26.1889 61.8176L41.3658 78.7266L41.4375 78.7983C43.1719 80.5141 45.5121 80.9396 47.5795 80.8217C49.6492 80.7061 51.5917 80.1002 53.1434 79.1613C56.5589 77.1009 65.8621 70.6328 65.8621 70.6328L66.0795 70.4871L66.2252 70.3438C67.3259 69.2499 67.8786 67.9156 68.2486 66.5143L77.1356 62.0326L83.784 59.7941L85.375 59.2854V36.8125H83.0625C79.175 36.8415 75.3199 36.1044 71.7174 34.6434C68.9516 33.5634 67.2728 32.243 64.6319 32.1875C63.2213 32.1598 61.9424 32.1066 60.6613 32.1158ZM60.7307 36.7408C61.7713 36.7316 62.9738 36.7871 64.4908 36.8125C64.7336 36.8218 66.9559 37.7699 70.0547 38.9816C72.6748 40.0107 76.3146 40.9241 80.75 41.2201V55.9623L75.4012 57.7707H75.2578L75.1121 57.8401L68.1052 61.3828C67.7333 60.3097 67.1427 59.3254 66.3709 58.4922L66.2252 58.2748L56.3971 46.2082L54.9517 44.3998L53.1434 45.8451L46.9297 50.9049C44.8438 52.3502 43.1534 51.9339 41.4375 51.1223C40.9403 50.8864 40.9681 50.8147 40.5703 50.5441L51.1222 41.7983L51.2656 41.6549C54.3991 38.5469 56.3254 37.4716 57.9858 37.0299C58.8183 36.8033 59.6924 36.7501 60.7307 36.7408ZM44.6195 36.8125C45.3911 36.7812 46.1639 36.8052 46.932 36.8842C47.5379 36.9559 48.2247 37.4716 48.8121 37.6797C48.5762 37.8971 48.4051 38.0219 48.1599 38.2578L48.0166 38.4035L35.3695 48.8791L33.4178 50.4701L35.1521 52.2762C35.1521 52.2762 36.8241 54.0846 39.4164 55.3125C42.0087 56.5404 46.0116 57.2365 49.6052 54.7344L49.7509 54.5887L54.2302 50.9049L62.7587 61.3828L62.8304 61.5285L62.9021 61.5979C64.4284 63.1079 64.3937 65.4829 62.9021 67.0207C62.8836 67.0369 62.9206 67.0739 62.9021 67.0901C62.8836 67.1016 62.5784 67.282 62.5414 67.3098L59.5051 63.1889L55.7472 65.9361L58.7119 69.909C57.5094 70.723 56.9682 71.1485 55.6756 72.0064L52.5699 67.8139L48.8097 70.5611L51.7744 74.534C51.5108 74.6959 50.9696 75.0589 50.7615 75.1861C50.0307 75.6278 48.6201 76.125 47.3644 76.1967C46.1827 76.2614 45.2786 75.9886 44.8369 75.6186L44.7652 75.5469L29.2992 58.4205L29.0101 58.0574L25.25 56.1797V41.2201C29.6669 40.9311 33.3345 40.0546 35.9453 39.0533C39.0348 37.8693 41.2409 36.8934 41.5092 36.8842L44.6195 36.8125Z" fill="#4A9200"/>
</svg>
