<svg width="106" height="106" viewBox="0 0 106 106" fill="none" xmlns="http://www.w3.org/2000/svg">
<rect width="106" height="106" rx="53" fill="#FCEB4F" fill-opacity="0.16"/>
<path d="M69.1935 54.511C68.3179 61.8031 63.5418 64.7169 61.479 66.832C59.4132 68.9534 59.7832 69.3758 59.922 72.4869C59.9451 72.8718 59.8892 73.2574 59.7577 73.6198C59.6261 73.9823 59.4218 74.314 59.1572 74.5945C58.8926 74.875 58.5733 75.0984 58.2191 75.2508C57.8649 75.4032 57.4832 75.4815 57.0976 75.4808H48.9021C48.5168 75.4801 48.1356 75.4009 47.7819 75.2481C47.4281 75.0953 47.1092 74.8719 46.8447 74.5918C46.5801 74.3116 46.3754 73.9805 46.243 73.6186C46.1106 73.2567 46.0534 72.8716 46.0747 72.4869C46.0747 69.4344 46.3584 68.7252 44.5207 66.832C42.1774 64.4887 36.6644 61.1803 36.6644 52.0814C36.6503 49.8213 37.1046 47.5828 37.9986 45.507C38.8926 43.4312 40.2069 41.5631 41.8587 40.0204C43.5105 38.4778 45.464 37.2941 47.596 36.5439C49.728 35.7937 51.9923 35.4933 54.2461 35.6617C56.5 35.83 58.6945 36.4634 60.6914 37.522C62.6883 38.5806 64.4443 40.0414 65.8486 41.8123C67.2529 43.5832 68.2751 45.6258 68.8508 47.8114C69.4265 49.997 69.5432 52.2781 69.1935 54.511Z" stroke="#4A9200" stroke-width="5" stroke-linecap="round" stroke-linejoin="round"/>
<path d="M48.2526 75.311V79.973C48.2526 81.2464 48.9618 82.2917 49.8344 82.2917H56.1644C57.0432 82.2917 57.7493 81.2433 57.7493 79.973V75.311M50.5959 42.8127C48.7753 42.8135 47.0296 43.5373 45.7425 44.825C44.4555 46.1126 43.7324 47.8587 43.7324 49.6793M75.6079 52.704H81.2628M69.9161 34.167L73.9275 30.1556M72.9994 68.4167L77.0109 72.425M53.0009 23.3291V27.9017M32.1576 30.1525L36.1413 34.167M29.0743 72.425L33.0579 68.4167M30.3939 52.704H24.7422" stroke="#4A9200" stroke-width="5" stroke-linecap="round" stroke-linejoin="round"/>
</svg>
