<svg width="122" height="122" viewBox="0 0 122 122" fill="none" xmlns="http://www.w3.org/2000/svg">
<rect width="122" height="122" rx="61" fill="#FCEB4F" fill-opacity="0.16"/>
<path d="M37.8737 74.8751C33.2487 78.7601 31.707 90.2918 31.707 90.2918C31.707 90.2918 43.2387 88.7501 47.1237 84.1251C49.3129 81.5351 49.282 77.5576 46.8462 75.1526C45.6477 74.0087 44.069 73.3477 42.4131 73.2965C40.7571 73.2453 39.1406 73.8075 37.8737 74.8751ZM60.9987 70.2501L51.7487 61.0001C53.3895 56.7434 55.4555 52.663 57.9154 48.8209C61.508 43.0767 66.5105 38.347 72.4471 35.0819C78.3837 31.8168 85.0569 30.1248 91.832 30.1668C91.832 38.5534 89.427 53.2918 73.332 64.0834C69.4369 66.5453 65.3052 68.6111 60.9987 70.2501Z" stroke="#4A9200" stroke-width="5" stroke-linecap="round" stroke-linejoin="round"/>
<path d="M51.7487 61.0001H36.332C36.332 61.0001 38.0279 51.6576 42.4987 48.6668C47.4937 45.3368 57.9154 48.6668 57.9154 48.6668M60.9987 70.2501V85.6668C60.9987 85.6668 70.3412 83.9709 73.332 79.5001C76.662 74.5051 73.332 64.0834 73.332 64.0834" stroke="#4A9200" stroke-width="5" stroke-linecap="round" stroke-linejoin="round"/>
</svg>
